<?xml version="1.0" encoding="UTF-8" standalone="no"?>
<!-- Created with Inkscape (http://www.inkscape.org/) -->

<svg
   xmlns:dc="http://purl.org/dc/elements/1.1/"
   xmlns:cc="http://creativecommons.org/ns#"
   xmlns:rdf="http://www.w3.org/1999/02/22-rdf-syntax-ns#"
   xmlns:svg="http://www.w3.org/2000/svg"
   xmlns="http://www.w3.org/2000/svg"
   xmlns:sodipodi="http://sodipodi.sourceforge.net/DTD/sodipodi-0.dtd"
   xmlns:inkscape="http://www.inkscape.org/namespaces/inkscape"
   id="svg7384"
   height="16"
   width="16"
   version="1.1"
   inkscape:version="0.48.4 r9939"
   sodipodi:docname="all-users.svg">
  <defs
     id="defs10" />
  <sodipodi:namedview
     pagecolor="#ffffff"
     bordercolor="#666666"
     borderopacity="1"
     objecttolerance="10"
     gridtolerance="10"
     guidetolerance="10"
     inkscape:pageopacity="0"
     inkscape:pageshadow="2"
     inkscape:window-width="1309"
     inkscape:window-height="744"
     id="namedview8"
     showgrid="false"
     inkscape:zoom="14.75"
     inkscape:cx="-15.864407"
     inkscape:cy="8"
     inkscape:window-x="57"
     inkscape:window-y="24"
     inkscape:window-maximized="1"
     inkscape:current-layer="layer9" />
  <metadata
     id="metadata90">
    <rdf:RDF>
      <cc:Work
         rdf:about="">
        <dc:format>image/svg+xml</dc:format>
        <dc:type
           rdf:resource="http://purl.org/dc/dcmitype/StillImage" />
        <dc:title>Gnome Symbolic Icon Theme</dc:title>
      </cc:Work>
    </rdf:RDF>
  </metadata>
  <title
     id="title9167">Gnome Symbolic Icon Theme</title>
  <g
     id="layer9"
     transform="translate(-41 -337)">
    <path
       id="rect20599"
       style="color:#bebebe;fill:#808080;fill-opacity:1"
       d="m 45.033898,343.71186 c -1.5545,0.11593 -3,1.4148 -3,3 v 4 h 10 v -4 c 0,-1.5852 -1.4455,-2.8841 -3,-3 v 1 h -4 z"
       inkscape:connector-curvature="0" />
    <path
       id="path20580"
       style="color:#bebebe;fill:#808080;fill-opacity:1"
       d="m 50.033898,340.71186 a 3,3 0 0 1 -6,0 3,3 0 1 1 6,0 z"
       inkscape:connector-curvature="0" />
    <path
       id="rect20599-0"
       style="color:#bebebe;fill:#949494;fill-opacity:1"
       d="m 49.440678,345.24577 c -1.5545,0.11593 -3,1.4148 -3,3 v 4 h 10 v -4 c 0,-1.5852 -1.4455,-2.8841 -3,-3 v 1 h -4 z"
       inkscape:connector-curvature="0" />
    <path
       id="path20580-6"
       style="color:#bebebe;fill:#949494;fill-opacity:1"
       d="m 54.440678,342.24577 a 3,3 0 0 1 -6,0 3,3 0 1 1 6,0 z"
       inkscape:connector-curvature="0" />
  </g>
</svg>
