<?xml version="1.0" encoding="UTF-8" standalone="no"?>
<!-- Created with Inkscape (http://www.inkscape.org/) -->

<svg
   xmlns:dc="http://purl.org/dc/elements/1.1/"
   xmlns:cc="http://creativecommons.org/ns#"
   xmlns:rdf="http://www.w3.org/1999/02/22-rdf-syntax-ns#"
   xmlns:svg="http://www.w3.org/2000/svg"
   xmlns="http://www.w3.org/2000/svg"
   xmlns:sodipodi="http://sodipodi.sourceforge.net/DTD/sodipodi-0.dtd"
   xmlns:inkscape="http://www.inkscape.org/namespaces/inkscape"
   width="90"
   height="90"
   id="svg3376"
   version="1.1"
   inkscape:version="0.48.4 r9939"
   sodipodi:docname="new-contact.svg">
  <defs
     id="defs3378">
    <clipPath
       clipPathUnits="userSpaceOnUse"
       id="clipPath3008-8">
      <path
         style="color:#000000;fill:#ff00ff;fill-opacity:1;fill-rule:nonzero;stroke:none;stroke-width:4;marker:none;visibility:visible;display:inline;overflow:visible;enable-background:accumulate"
         d="m 222.01348,818.38162 0,53.96817 126.0009,0 0,-53.96817 -41.61804,0 c -2.33771,3.81564 -5.01696,7.30187 -8.21849,10.22052 -3.28327,2.99317 -7.32293,5.87441 -13.18781,5.87441 -5.86488,0 -9.90454,-2.88124 -13.18781,-5.87441 -3.20153,-2.91865 -5.88078,-6.40488 -8.21849,-10.22052 L 222.01348,818.38162 Z"
         id="path3010-4"
         inkscape:connector-curvature="0" />
    </clipPath>
  </defs>
  <sodipodi:namedview
     id="base"
     pagecolor="#ffffff"
     bordercolor="#666666"
     borderopacity="1.0"
     inkscape:pageopacity="0.0"
     inkscape:pageshadow="2"
     inkscape:zoom="3.1832314"
     inkscape:cx="4.5708266"
     inkscape:cy="58.855203"
     inkscape:document-units="px"
     inkscape:current-layer="g4142"
     showgrid="true"
     fit-margin-top="0"
     fit-margin-left="0"
     fit-margin-right="0"
     fit-margin-bottom="0"
     inkscape:window-width="1309"
     inkscape:window-height="744"
     inkscape:window-x="57"
     inkscape:window-y="24"
     inkscape:window-maximized="1">
    <inkscape:grid
       type="xygrid"
       id="grid2988"
       empspacing="6"
       visible="true"
       enabled="true"
       snapvisiblegridlinesonly="true" />
  </sodipodi:namedview>
  <metadata
     id="metadata3381">
    <rdf:RDF>
      <cc:Work
         rdf:about="">
        <dc:format>image/svg+xml</dc:format>
        <dc:type
           rdf:resource="http://purl.org/dc/dcmitype/StillImage" />
        <dc:title />
      </cc:Work>
    </rdf:RDF>
  </metadata>
  <g
     inkscape:label="Layer 1"
     inkscape:groupmode="layer"
     id="layer1"
     transform="translate(0,-962.36212)">
    <g
       transform="translate(-480,48)"
       id="g4142">
      <rect
         y="914.36212"
         x="480"
         height="90"
         width="90"
         id="rect4006"
         style="color:#000000;fill:none;stroke:none;stroke-width:4;marker:none;visibility:visible;display:inline;overflow:visible;enable-background:accumulate" />
      <path
         style="color:#000000;fill:#808080;fill-opacity:1;fill-rule:nonzero;stroke:none;stroke-width:2;marker:none;visibility:visible;display:inline;overflow:visible;enable-background:accumulate"
         clip-path="none"
         d="m 498.04431,951.709 c -9.25386,0.75116 -11.73016,4.21922 -11.73016,11.5032 l 0,3.33964 c 0,4.99474 -0.004,4.98296 6.4426,4.98296 l 29.00456,0 c 6.44622,0 6.4426,0.0118 6.4426,-4.98296 l 0,-3.33964 c 0,-7.31563 -2.47945,-10.7724 -11.83283,-11.5032 -0.63048,0.78156 -1.3055,1.51968 -2.02775,2.19992 -1.76373,1.66112 -3.93377,3.26013 -7.0843,3.26013 -3.15053,0 -5.32057,-1.59901 -7.0843,-3.26013 -0.71816,-0.67639 -1.37469,-1.42331 -2.00208,-2.19992 -0.041,0.003 -0.0876,-0.003 -0.12834,0 z"
         id="rect3461-3-1"
         inkscape:connector-curvature="0" />
      <path
         inkscape:transform-center-y="11.786892"
         inkscape:transform-center-x="-0.0035780001"
         id="path3447-0-6"
         d="m 507.25903,920.64504 c -7.9203,-2e-5 -11.08847,3.30339 -11.08847,11.56181 l 0,1.65168 c 0,6.60674 6.35485,18.16853 11.09773,18.16853 4.74286,0 11.07921,-11.56179 11.07921,-18.16853 l 0,-1.65168 c 0,-8.25842 -3.16817,-11.56179 -11.08847,-11.56181 z"
         style="color:#000000;fill:#808080;fill-opacity:1;fill-rule:nonzero;stroke:none;stroke-width:4;marker:none;visibility:visible;display:inline;overflow:visible;enable-background:accumulate"
         inkscape:connector-curvature="0"
         sodipodi:nodetypes="zsszssz" />
      <path
         style="color:#000000;fill:#808080;fill-opacity:1;fill-rule:nonzero;stroke:none;stroke-width:2;marker:none;visibility:visible;display:inline;overflow:visible;enable-background:accumulate"
         clip-path="none"
         d="m 533.38479,978.56754 c -9.25386,0.75116 -11.73016,4.21922 -11.73016,11.5032 l 0,3.33964 c 0,4.99474 -0.004,4.98294 6.4426,4.98294 l 29.00456,0 c 6.44622,0 6.4426,0.012 6.4426,-4.98294 l 0,-3.33964 c 0,-7.31563 -2.47945,-10.7724 -11.83283,-11.5032 -0.63048,0.78156 -1.3055,1.51968 -2.02775,2.19992 -1.76373,1.66112 -3.93377,3.26013 -7.0843,3.26013 -3.15053,0 -5.32057,-1.59901 -7.0843,-3.26013 -0.71816,-0.67639 -1.37469,-1.42331 -2.00208,-2.19992 -0.041,0.003 -0.0876,-0.003 -0.12834,0 z"
         id="rect3461-3-1-09"
         inkscape:connector-curvature="0" />
      <path
         inkscape:transform-center-y="11.786892"
         inkscape:transform-center-x="-0.0035780001"
         id="path3447-0-6-3"
         d="m 542.59951,947.50358 c -7.9203,-2e-5 -11.08847,3.30339 -11.08847,11.56181 l 0,1.65168 c 0,6.60674 6.35485,18.16853 11.09773,18.16853 4.74286,0 11.07921,-11.56179 11.07921,-18.16853 l 0,-1.65168 c 0,-8.25842 -3.16817,-11.56179 -11.08847,-11.56181 z"
         style="color:#000000;fill:#808080;fill-opacity:1;fill-rule:nonzero;stroke:none;stroke-width:4;marker:none;visibility:visible;display:inline;overflow:visible;enable-background:accumulate"
         inkscape:connector-curvature="0"
         sodipodi:nodetypes="zsszssz" />
    </g>
  </g>
  <g
     inkscape:groupmode="layer"
     id="layer2"
     inkscape:label="Clips"
     style="display:none"
     sodipodi:insensitive="true">
    <rect
       y="1.5821854e-06"
       x="0"
       height="90"
       width="90"
       id="rect4006-1"
       style="color:#000000;fill:none;stroke:none;stroke-width:4;marker:none;visibility:visible;display:inline;overflow:visible;enable-background:accumulate" />
    <rect
       style="color:#000000;fill:#808080;fill-opacity:1;fill-rule:nonzero;stroke:none;stroke-width:7.5;marker:none;visibility:visible;display:inline;overflow:visible;enable-background:accumulate"
       id="rect4012-2"
       width="5.9899292"
       height="42.000099"
       x="63.010071"
       y="48" />
    <rect
       y="-87"
       x="66"
       height="42"
       width="6.0000014"
       id="rect4014-9"
       style="color:#000000;fill:#808080;fill-opacity:1;fill-rule:nonzero;stroke:none;stroke-width:7.5;marker:none;visibility:visible;display:inline;overflow:visible;enable-background:accumulate"
       transform="matrix(0,1,-1,0,0,0)" />
    <path
       transform="matrix(0.65401317,0,0,0.65432084,-154.88724,-502.9529)"
       style="color:#000000;fill:#808080;fill-opacity:1;fill-rule:nonzero;stroke:none;stroke-width:2;marker:none;visibility:visible;display:inline;overflow:visible;enable-background:accumulate"
       d="m 246,851.36218 c 0,9 0,9 12,9 l 54,0 c 12,0 12,0 12,-9 l 0,-6 c 0,-15 -6,-21 -30,-21 l -18,0 C 252,824.36218 246,830.36218 246,845.36218 Z"
       id="rect3461-3-1-0"
       inkscape:connector-curvature="0"
       sodipodi:nodetypes="csscccccc"
       clip-path="url(#clipPath3008-8)" />
    <path
       inkscape:transform-center-y="13.89697"
       inkscape:transform-center-x="-0.0043565392"
       id="path3447-0-6-2"
       d="M 31.5,0 C 21.85718,-1.9999846e-5 18,3.89476 18,13.63159 l 0,1.94737 C 18,23.36843 25.73691,37 31.51127,37 37.28562,37 45,23.36843 45,15.57896 l 0,-1.94737 C 45,3.89476 41.14282,2.0000154e-5 31.5,0 Z"
       style="color:#000000;fill:#808080;fill-opacity:1;fill-rule:nonzero;stroke:none;stroke-width:4;marker:none;visibility:visible;display:inline;overflow:visible;enable-background:accumulate"
       inkscape:connector-curvature="0"
       sodipodi:nodetypes="zsszssz" />
  </g>
</svg>
